<svg width="690" height="574" viewBox="0 0 690 574" fill="none" xmlns="http://www.w3.org/2000/svg">
<g clip-path="url(#clip0_16_644)">
<path d="M185.195 538.856L196.822 542.91L217.993 499.993L200.833 494.009L185.195 538.856Z" fill="#A0616A"/>
<path d="M200.325 545.307L203.074 537.425L199.953 536.545L187.253 532.943L184.312 532.116L172.904 557.746L172.292 559.12L180.548 561.999L181.304 560.687L184.73 554.717L185.598 562.184L185.786 563.826L207.674 571.46C208.979 571.906 210.407 571.819 211.649 571.218C212.891 570.617 213.845 569.55 214.305 568.25C216.733 564.257 201.785 548.582 200.325 545.307Z" fill="#2F2E41"/>
<path d="M102.968 547.942H115.281L121.139 500.446L102.965 500.447L102.968 547.942Z" fill="#A0616A"/>
<path d="M119.379 549.051V540.703L116.141 540.901L102.964 541.681L99.9144 541.869L97.5829 569.826L97.458 571.325H106.201L106.482 569.837L107.752 563.071L111.031 569.837L111.749 571.325H134.929C136.308 571.316 137.629 570.764 138.603 569.787C139.577 568.811 140.127 567.49 140.133 566.11C141.112 561.541 121.835 551.663 119.379 549.051Z" fill="#2F2E41"/>
<path d="M190.844 249.907L210.182 275.538C210.182 275.538 199.502 274.797 210.182 279.44C220.862 284.082 221.165 282.442 221.014 288.068C220.862 293.694 209.975 292.853 215.419 298.614C220.862 304.374 257.326 380.959 257.326 380.959C257.326 380.959 227.447 491.838 223.621 496.362C219.794 500.886 215.522 496.614 219.794 500.886C224.066 505.158 229.406 499.818 224.066 505.158C218.726 510.498 211.402 519.921 211.402 519.921L189.89 516.906C189.89 516.906 166.395 494.478 203.774 457.098C203.774 457.098 213.185 419.701 209.014 419.71C204.842 419.718 204.842 425.748 204.842 413.655V401.562L155.341 308.826C155.341 308.826 123.75 284.183 124.247 272.919C124.743 261.654 190.844 249.907 190.844 249.907Z" fill="#2F2E41"/>
<path d="M155.715 275.538C155.715 275.538 178.142 388.746 174.938 391.95C171.734 395.154 171.734 403.193 171.734 403.193L120.471 516.906L100.179 517.974C99.6995 485.44 99.5675 460.762 117.267 437.874L125.811 270.198L155.715 275.538Z" fill="#2F2E41"/>
<path d="M184.831 141.156L160.389 121.859L147.558 121.113L128.519 133.31L123.857 157.093L112.831 183.875L129.003 256.152C129.003 256.152 130.519 261.338 126.545 261.961C122.57 262.584 123.047 270.229 123.047 270.229C123.047 270.229 123.856 276.855 119.997 277.439C116.137 278.022 105.846 278.022 114.851 289.6C123.857 301.179 195.083 257.388 195.083 257.388L205.429 203.106C205.429 203.106 225.491 176.159 203.885 160.726L184.831 141.156Z" fill="#E6E6E6"/>
<path d="M78.1263 305.257C77.0493 303.913 76.28 302.349 75.8727 300.676C75.4654 299.002 75.43 297.26 75.769 295.571C76.1079 293.883 76.813 292.289 77.8345 290.902C78.856 289.516 80.1691 288.37 81.6814 287.546L112.427 184.364L131.652 194.043L98.1694 292.942C99.3856 295.574 99.5941 298.561 98.7552 301.337C97.9163 304.112 96.0885 306.484 93.6179 308.002C91.1474 309.52 88.2058 310.079 85.3506 309.573C82.4954 309.067 79.925 307.531 78.1264 305.257L78.1263 305.257Z" fill="#A0616A"/>
<path d="M132.934 132.355C132.934 132.355 127.438 129.434 123.679 142.073C120.67 152.191 96.2508 212.46 95.9393 227.113C93.9297 227.539 92.1189 228.621 90.7922 230.189C89.4655 231.758 88.6982 233.723 88.6113 235.775L118.803 239.821C124.079 235.371 125.463 229.361 123.422 227.578L129.977 209.674L157.326 152.709L136.944 134.396L132.934 132.355Z" fill="#E6E6E6"/>
<path d="M294.26 271.341C294.65 269.664 294.667 267.921 294.311 266.236C293.954 264.551 293.233 262.965 292.197 261.589C291.161 260.213 289.836 259.081 288.315 258.272C286.795 257.464 285.115 256.998 283.395 256.909L212.866 176.359L197.904 194.211L270.862 268.904C270.904 271.804 272.007 274.587 273.964 276.727C275.921 278.867 278.594 280.215 281.478 280.515C284.363 280.816 287.257 280.048 289.612 278.357C291.968 276.666 293.621 274.17 294.26 271.341Z" fill="#A0616A"/>
<path d="M170.072 139.143C170.072 139.143 173.764 134.133 182.619 143.904C189.708 151.726 237.788 195.508 244.405 208.585C246.402 208.1 248.502 208.293 250.377 209.133C252.251 209.973 253.793 211.413 254.759 213.226L229.285 229.931C222.604 228.2 218.757 223.38 219.826 220.889L206.173 207.58L156.88 168.044L167.338 142.718L170.072 139.143Z" fill="#E6E6E6"/>
<path d="M179.945 93.9216C185.496 79.6478 178.424 63.5768 164.151 58.0259C149.877 52.475 133.806 59.5463 128.255 73.82C122.704 88.0938 129.775 104.165 144.049 109.716C158.323 115.267 174.394 108.195 179.945 93.9216Z" fill="#A0616A"/>
<path d="M187.231 58.452C185.562 56.6524 183.351 55.4467 180.934 55.0183C178.517 54.5899 176.027 54.962 173.841 56.0783C174.399 52.9618 174.957 49.8454 175.515 46.7289C170.878 46.0191 166.241 45.3092 161.604 44.5994C154.608 43.5285 147.399 42.4647 140.519 44.1249C135.594 45.3852 131.106 47.9659 127.539 51.5887C123.972 55.2114 121.462 59.739 120.278 64.6833C117.282 62.6519 113.776 61.5011 110.159 61.3617C106.541 61.2224 102.957 62.1 99.8135 63.8949C96.6698 65.6899 94.0923 68.3303 92.3736 71.5163C90.6549 74.7024 89.8639 78.3065 90.0903 81.9195C90.4237 87.2373 92.9104 92.1442 94.4491 97.2454C100.296 116.631 90.6123 139.512 72.6255 148.81C78.4186 153.204 84.4013 157.694 91.4165 159.607C98.4318 161.519 106.818 160.262 111.438 154.647C113.802 151.775 114.942 148.117 116.03 144.559C120.429 130.176 124.828 115.793 129.227 101.41L136.338 114.249C138.609 117.425 137.796 121.868 136.16 125.413C134.524 128.957 132.147 132.239 131.415 136.073C130.683 139.908 132.385 144.659 136.195 145.507C141.344 133.395 146.603 120.488 144.606 107.48C143.828 102.417 141.966 97.2249 143.429 92.3161C144.56 88.523 147.552 85.538 150.877 83.3904C154.357 81.1456 158.266 79.649 162.356 78.9953C171.394 77.5578 182.644 79.4884 187.949 72.0312C189.324 69.9983 189.998 67.572 189.869 65.121C189.739 62.6701 188.813 60.3285 187.231 58.452Z" fill="#2F2E41"/>
<path d="M169.601 230.203C182.571 230.203 193.085 219.689 193.085 206.719C193.085 193.749 182.571 183.235 169.601 183.235C156.631 183.235 146.117 193.749 146.117 206.719C146.117 219.689 156.631 230.203 169.601 230.203Z" fill="#00C3A5"/>
<path d="M175.083 194.901C175.208 195.412 175.395 195.905 175.639 196.37C175.846 196.894 176.193 197.352 176.643 197.691C177.093 198.031 177.629 198.239 178.19 198.293C178.284 198.289 178.378 198.276 178.469 198.253C179.473 198.006 180.086 196.789 180.096 195.271C180.096 194.745 180.032 194.222 179.905 193.712C179.783 193.206 179.598 192.718 179.356 192.258C178.642 190.911 177.529 190.111 176.522 190.359C175.189 190.688 174.546 192.723 175.083 194.901Z" fill="white"/>
<path d="M176.893 196.362C177.083 197.139 177.543 197.824 178.19 198.293C178.284 198.289 178.378 198.276 178.469 198.253C179.473 198.006 180.086 196.789 180.096 195.271C180.096 194.745 180.032 194.222 179.905 193.712C179.783 193.206 179.598 192.718 179.356 192.258C178.486 192.478 177.739 193.033 177.277 193.802C176.816 194.571 176.678 195.492 176.893 196.362Z" fill="#3F3D56"/>
<path d="M165.095 197.365C165.61 199.457 167.027 200.922 168.319 200.747C168.374 200.74 168.427 200.73 168.48 200.717C169.811 200.389 170.454 198.354 169.917 196.176C169.794 195.671 169.61 195.184 169.368 194.724C168.653 193.375 167.541 192.574 166.534 192.823C165.2 193.152 164.557 195.186 165.095 197.365Z" fill="white"/>
<path d="M167.003 198.802C167.195 199.586 167.662 200.277 168.319 200.747C168.374 200.74 168.427 200.73 168.48 200.717C169.811 200.389 170.454 198.354 169.916 196.176C169.794 195.671 169.61 195.184 169.368 194.724C168.522 194.965 167.803 195.525 167.362 196.285C166.921 197.046 166.792 197.948 167.003 198.802Z" fill="#3F3D56"/>
<path d="M184.879 204.248C186.308 210.041 184.044 215.581 179.824 216.622C175.603 217.663 171.023 213.811 169.595 208.018C174.803 209.326 179.902 208.148 184.879 204.248Z" fill="white"/>
<path opacity="0.2" d="M146.802 212.387C145.647 207.705 145.961 202.782 147.702 198.285C149.442 193.788 152.523 189.935 156.529 187.249C152.791 191.543 150.74 197.047 150.757 202.739C150.773 208.431 152.856 213.923 156.618 218.194C160.38 222.465 165.566 225.225 171.21 225.96C176.854 226.695 182.573 225.356 187.304 222.19C184.481 225.432 180.821 227.837 176.725 229.141C172.629 230.446 168.254 230.602 164.075 229.59C159.897 228.579 156.077 226.44 153.031 223.406C149.985 220.373 147.83 216.561 146.802 212.387Z" fill="black"/>
<path d="M680.31 556.113C679.845 556.135 679.385 556.013 678.992 555.764C678.599 555.515 678.292 555.151 678.112 554.722C677.933 554.292 677.89 553.818 677.989 553.364C678.088 552.909 678.324 552.496 678.666 552.18L678.821 551.562C678.8 551.512 678.78 551.463 678.759 551.413C678.291 550.307 677.506 549.364 676.504 548.703C675.501 548.041 674.326 547.691 673.125 547.695C671.924 547.7 670.751 548.059 669.753 548.728C668.755 549.397 667.978 550.346 667.518 551.455C665.679 555.883 663.338 560.319 662.762 565.001C662.508 567.071 662.615 569.169 663.079 571.201C658.76 561.782 656.518 551.543 656.503 541.181C656.502 538.58 656.647 535.982 656.936 533.398C657.175 531.279 657.507 529.176 657.931 527.087C660.245 515.756 665.215 505.135 672.431 496.098C675.924 494.192 678.748 491.262 680.524 487.701C681.167 486.421 681.622 485.055 681.874 483.645C681.48 483.697 680.388 477.696 680.685 477.328C680.136 476.495 679.154 476.081 678.554 475.268C675.572 471.224 671.463 471.93 669.318 477.425C664.735 479.738 664.691 483.573 667.503 487.262C669.292 489.609 669.537 492.784 671.107 495.297C670.945 495.504 670.777 495.704 670.616 495.91C667.664 499.706 665.092 503.782 662.935 508.079C663.459 503.265 662.833 498.395 661.109 493.869C659.36 489.652 656.084 486.1 653.198 482.454C652.435 481.475 651.399 480.744 650.22 480.353C649.041 479.963 647.773 479.931 646.576 480.261C645.379 480.591 644.307 481.268 643.495 482.207C642.683 483.147 642.168 484.306 642.014 485.538C642.008 485.592 642.002 485.645 641.997 485.699C642.425 485.941 642.845 486.197 643.255 486.469C643.771 486.813 644.171 487.306 644.402 487.881C644.633 488.457 644.685 489.089 644.551 489.694C644.417 490.3 644.103 490.851 643.65 491.275C643.197 491.699 642.627 491.976 642.014 492.071L641.952 492.08C642.104 493.625 642.374 495.156 642.759 496.66C639.057 510.975 647.049 516.19 658.46 516.424C658.712 516.553 658.958 516.682 659.21 516.805C657.043 522.945 655.684 529.342 655.166 535.833C654.874 539.662 654.891 543.509 655.218 547.336L655.199 547.2C654.372 542.945 652.102 539.106 648.772 536.33C643.827 532.267 636.839 530.771 631.504 527.506C630.937 527.142 630.278 526.947 629.604 526.946C628.93 526.944 628.27 527.135 627.701 527.497C627.132 527.858 626.678 528.374 626.393 528.985C626.108 529.596 626.004 530.275 626.093 530.943L626.114 531.086C626.91 531.409 627.684 531.783 628.433 532.203C628.862 532.445 629.281 532.701 629.692 532.973C630.208 533.317 630.607 533.81 630.838 534.385C631.069 534.961 631.121 535.593 630.987 536.198C630.853 536.804 630.539 537.355 630.086 537.779C629.634 538.203 629.064 538.48 628.451 538.575L628.388 538.584C628.343 538.591 628.304 538.597 628.259 538.604C629.618 541.848 631.525 544.835 633.897 547.433C636.212 559.93 646.153 561.116 656.788 557.476H656.794C657.961 562.547 659.651 567.482 661.838 572.203H679.859C679.923 572.002 679.981 571.796 680.04 571.595C678.372 571.7 676.697 571.601 675.053 571.298C676.39 569.658 677.727 568.004 679.064 566.364C679.094 566.333 679.122 566.301 679.148 566.267C679.826 565.427 680.511 564.594 681.189 563.754L681.19 563.753C681.226 561.18 680.93 558.612 680.311 556.114L680.31 556.113Z" fill="#F2F2F2"/>
<path d="M5.26701e-06 572.256C-0.000460802 572.413 0.0300089 572.568 0.0896507 572.712C0.149292 572.857 0.236938 572.988 0.347539 573.099C0.45814 573.209 0.589511 573.297 0.734106 573.357C0.8787 573.416 1.03368 573.447 1.19008 573.446H688.48C688.796 573.446 689.098 573.321 689.322 573.098C689.545 572.874 689.67 572.572 689.67 572.256C689.67 571.941 689.545 571.638 689.322 571.415C689.098 571.192 688.796 571.066 688.48 571.066H1.19002C1.03362 571.066 0.878661 571.096 0.734075 571.156C0.58949 571.215 0.458118 571.303 0.347524 571.414C0.236931 571.524 0.149291 571.656 0.0896507 571.8C0.0300107 571.945 -0.000455455 572.1 5.26701e-06 572.256Z" fill="#CCCCCC"/>
<path d="M486.962 555.88L472.455 555.879L465.554 499.923L486.965 499.925L486.962 555.88Z" fill="#FFB6B6"/>
<path d="M487.472 571.014L442.862 571.012V570.448C442.862 565.843 444.692 561.427 447.948 558.17C451.204 554.914 455.621 553.085 460.226 553.085H460.227L468.375 546.903L483.579 553.086L487.473 553.086L487.472 571.014Z" fill="#2F2E41"/>
<path d="M550.243 555.88L535.737 555.879L528.836 499.923L550.246 499.925L550.243 555.88Z" fill="#FFB6B6"/>
<path d="M550.754 571.014L506.144 571.012V570.448C506.144 565.843 507.973 561.427 511.23 558.17C514.486 554.914 518.902 553.085 523.507 553.085H523.508L531.657 546.903L546.861 553.086L550.755 553.086L550.754 571.014Z" fill="#2F2E41"/>
<path d="M450.841 250.993C450.841 250.993 436.884 293.861 439.46 299.504C442.036 305.146 446.432 300.75 442.036 305.146C437.641 309.541 433.804 304.869 437.92 312.333C442.036 319.798 448.272 381.247 451.015 384.222C453.758 387.196 457.529 387.276 454.178 390.167C450.827 393.057 446.432 387.196 450.827 393.057C455.223 398.918 466.887 534.119 466.887 534.119H489.672C489.672 534.119 495.347 527.577 492.135 523.32C488.922 519.063 492.417 517.422 492.135 514.58C491.853 511.737 492.921 505.609 493.119 502.812C493.318 500.016 497.169 433.395 487.917 394.911L504.787 321.634L525.222 410.199C525.222 410.199 515.822 484.487 525.222 508.368C525.222 508.368 517.643 514.679 521.004 518.336C524.365 521.993 527.296 519.063 524.365 521.993C521.435 524.924 528.761 535.18 528.761 535.18L553.669 533.715L567.767 394.911C567.767 394.911 570.144 380.436 567.767 377.955C565.391 375.475 565.39 384.266 565.39 375.475V363.753C565.39 363.753 564.014 291.659 563.83 287.414C563.647 283.168 546.065 252.399 546.065 252.399L450.841 250.993Z" fill="#2F2E41"/>
<path d="M451.049 102.93V187.46C453.778 195.645 455.185 204.212 455.219 212.84C455.129 227.21 451.969 243.77 451.979 251.01C451.937 251.97 452.041 252.931 452.289 253.86C466.279 294.41 540.309 257.56 547.039 254.11C547.359 253.95 547.529 253.86 547.529 253.86L546.069 208.44L546.319 195.38L548.049 105.79L546.499 104.55L532.919 93.72L531.589 92.66L527.509 98.61L491.139 96.11L477.259 92.27L472.929 94.03L453.409 101.97L451.049 102.93Z" fill="#00C3A5"/>
<path d="M429.514 273.005L434.295 246.59L449.766 247.216L443.717 274.964C444.533 276.423 444.927 278.08 444.853 279.75C444.778 281.421 444.24 283.037 443.298 284.418C442.355 285.798 441.047 286.889 439.518 287.567C437.99 288.245 436.303 288.483 434.647 288.254C432.991 288.026 431.432 287.34 430.144 286.274C428.856 285.208 427.892 283.804 427.358 282.219C426.825 280.635 426.744 278.933 427.125 277.306C427.506 275.678 428.333 274.189 429.514 273.005V273.005Z" fill="#FFB6B6"/>
<path d="M453.425 102.75C461.375 104.809 465.914 115.115 468.707 122.838C472.302 132.761 466.471 193.935 459.378 202.858C453.877 209.778 455.183 208.448 456.999 214.18C458.815 219.912 463.01 214.321 459.233 222.847C455.457 231.373 452.242 229.835 454.758 233.47C457.273 237.105 460.208 236.687 456.992 242.138C453.776 247.588 454.055 249.546 453.355 251.642C452.656 253.739 451.813 268.836 451.813 268.836C451.813 268.836 435.459 266.176 426.931 269.389C426.931 269.389 432.806 254.573 430.43 251.916C428.054 249.26 424.979 248.7 427.496 245.345C430.013 241.991 435.045 242.272 429.734 240.034C424.423 237.796 428.904 206.205 428.904 206.205C422.941 185.412 427.096 154.31 433.132 121.292C434.024 116.409 436.492 111.952 440.156 108.604C443.821 105.256 448.481 103.2 453.425 102.75Z" fill="#00C3A5"/>
<path d="M556.602 271.251L557.759 244.431L573.171 242.954L570.94 271.266C571.947 272.601 572.561 274.19 572.714 275.854C572.867 277.519 572.553 279.193 571.807 280.689C571.06 282.185 569.911 283.443 568.489 284.322C567.067 285.2 565.428 285.665 563.756 285.663C562.084 285.661 560.446 285.193 559.026 284.312C557.606 283.43 556.46 282.17 555.716 280.672C554.973 279.175 554.662 277.5 554.819 275.835C554.975 274.171 555.593 272.583 556.602 271.251Z" fill="#FFB6B6"/>
<path d="M540.491 103.18L540.923 103.231C544.941 103.705 548.782 105.151 552.115 107.444C555.448 109.737 558.171 112.807 560.05 116.39C564.957 125.734 580.482 189.018 576.681 197.702C573.136 205.801 573.283 203.81 575.859 209.242C578.435 214.675 581.833 208.567 579.248 217.527C576.662 226.486 573.268 225.398 576.253 228.658C579.238 231.919 582.09 231.106 579.642 236.943C577.194 242.78 577.736 244.681 577.328 246.853C576.919 249.025 578.131 264.097 578.131 264.097C578.131 264.097 561.567 263.678 553.553 268.018C553.553 268.018 557.365 252.542 554.651 250.232C551.937 247.922 548.814 247.785 550.854 244.12C552.893 240.455 557.916 240.051 552.351 238.554C546.785 237.057 546.942 205.15 546.942 205.15L540.491 103.18Z" fill="#00C3A5"/>
<path d="M500.779 69C501.429 69.15 502.079 69.28 502.729 69.38C504.715 69.7061 506.73 69.8101 508.739 69.69C513.971 69.4091 519.023 67.6844 523.335 64.7073C527.647 61.7302 531.05 57.617 533.166 52.8238C535.283 48.0307 536.031 42.7449 535.327 37.5527C534.622 32.3606 532.494 27.4649 529.177 23.4087C525.86 19.3524 521.485 16.2942 516.536 14.573C511.587 12.8519 506.258 12.5352 501.14 13.658C496.022 14.7807 491.315 17.2992 487.541 20.934C483.767 24.5687 481.073 29.1778 479.759 34.25C479.699 34.48 479.639 34.7 479.589 34.93C477.883 42.2578 479.156 49.9633 483.13 56.3522C487.104 62.7411 493.452 67.2905 500.779 69Z" fill="#FFB6B6"/>
<path d="M526.961 65.6524C530.907 62.5646 531.289 56.6789 534.656 52.9687C540.286 46.7655 542.931 40.0917 539.982 32.7414C537.374 26.2403 537.928 18.2488 532.31 14.0642C535.069 13.0654 535.719 10.9913 533.284 10.9531C531.643 10.9272 525.523 14.0647 528.468 10.1562C531.412 6.24774 525.838 7.7905 526.207 6.19062C526.576 4.59074 528.94 3.70463 529.983 4.97283C526.654 1.07222 519.384 1.90382 517.022 6.45543C513.704 1.48271 510.182 -1.93898 505.104 1.21671C500.118 4.31605 500.183 8.14727 494.82 7.22652C492.299 6.79369 492.061 11.5565 490.339 13.4477C488.617 15.3389 486.099 16.8026 483.586 16.3276C481.073 15.8526 479.151 12.7205 480.559 10.5852L474.635 24.0995L472.248 21.1711C468.454 23.6433 469.7 30.0944 473.519 32.5279C477.337 34.9613 484.625 29.3369 486.697 33.3628C489.964 39.7089 497.627 36.5043 502.89 32.0195C509.272 26.5805 516.975 43.1178 513.9 50.9184C517.09 47.7862 522.991 50.3855 524.643 54.5394C526.296 58.6932 525.084 63.3732 523.859 67.6726L526.961 65.6524Z" fill="#2F2E41"/>
<path d="M472.929 94.03L473.919 95.29L476.579 98.67L486.424 127.75L532.919 93.72L531.589 92.66L524.509 77.61L488.139 75.11L477.259 92.27L472.929 94.03Z" fill="#3F3D56"/>
<path d="M522.424 168.202C520.082 193.365 503.322 212.381 484.988 210.674C466.655 208.968 453.692 187.186 456.034 162.023C475.052 174.499 497.087 176.88 522.424 168.202Z" fill="white"/>
<path d="M479.113 138.275C479.019 139.771 478.743 141.25 478.29 142.679C477.077 146.422 474.727 149.059 472.094 149.365C471.828 149.401 471.558 149.41 471.289 149.393C468.345 149.202 466.013 146.095 465.22 141.834C464.956 140.358 464.872 138.856 464.971 137.36C465.061 135.879 465.333 134.414 465.783 133C467.11 128.858 469.833 126.05 472.786 126.241C476.698 126.494 479.526 131.885 479.113 138.275Z" fill="white"/>
<path d="M474.764 143.289C474.622 145.567 473.675 147.72 472.094 149.365C471.828 149.401 471.558 149.41 471.289 149.393C468.345 149.202 466.013 146.095 465.22 141.834C464.956 140.358 464.872 138.856 464.971 137.36C465.061 135.879 465.333 134.414 465.783 133C468.336 133.179 470.714 134.362 472.397 136.291C474.08 138.219 474.931 140.735 474.764 143.289Z" fill="#3F3D56"/>
<path d="M508.409 140.169C508.012 146.304 504.77 151.134 501.052 151.291C500.897 151.298 500.741 151.297 500.585 151.287C496.682 151.035 493.853 145.644 494.267 139.254C494.356 137.776 494.629 136.314 495.078 134.902C496.405 130.752 499.129 127.944 502.082 128.135C505.993 128.388 508.822 133.779 508.409 140.169Z" fill="white"/>
<path d="M503.77 145.164C503.626 147.466 502.662 149.639 501.052 151.291C500.897 151.298 500.741 151.297 500.585 151.287C496.682 151.035 493.853 145.644 494.267 139.254C494.356 137.776 494.629 136.314 495.078 134.902C497.574 135.153 499.875 136.363 501.496 138.278C503.118 140.192 503.933 142.661 503.77 145.164Z" fill="#3F3D56"/>
<path d="M261.993 81.9314C269.628 81.9314 275.817 75.7421 275.817 68.1072C275.817 60.4722 269.628 54.2829 261.993 54.2829C254.358 54.2829 248.168 60.4722 248.168 68.1072C248.168 75.7421 254.358 81.9314 261.993 81.9314Z" fill="#F2F2F2"/>
<path d="M263.744 62.344C263.73 62.6529 263.754 62.9624 263.814 63.2656C263.844 63.5962 263.964 63.9122 264.162 64.1788C264.36 64.4453 264.627 64.6519 264.935 64.7757C264.989 64.789 265.044 64.797 265.1 64.7994C265.708 64.8263 266.256 64.2413 266.514 63.3851C266.601 63.0885 266.652 62.7823 266.665 62.4733C266.68 62.1675 266.657 61.861 266.596 61.5609C266.417 60.6817 265.921 60.045 265.311 60.018C264.504 59.9822 263.803 61.0243 263.744 62.344Z" fill="white"/>
<path d="M264.524 63.4698C264.502 63.9401 264.648 64.4028 264.935 64.7757C264.989 64.789 265.044 64.797 265.1 64.7994C265.708 64.8263 266.256 64.2413 266.514 63.3851C266.601 63.0885 266.652 62.7823 266.665 62.4733C266.68 62.1675 266.657 61.861 266.596 61.5609C266.068 61.5405 265.554 61.7299 265.166 62.0876C264.778 62.4453 264.547 62.9423 264.524 63.4698Z" fill="#F2F2F2"/>
<path d="M257.694 62.076C257.638 63.343 258.195 64.4063 258.954 64.5218C258.986 64.5268 259.018 64.5301 259.05 64.5314C259.856 64.5671 260.557 63.5251 260.615 62.2055C260.63 61.9002 260.607 61.5944 260.546 61.2948C260.367 60.4138 259.871 59.7771 259.262 59.7501C258.454 59.7142 257.753 60.7563 257.694 62.076Z" fill="white"/>
<path d="M258.533 63.2045C258.511 63.6797 258.66 64.147 258.953 64.5217C258.985 64.5268 259.017 64.5301 259.049 64.5314C259.855 64.5671 260.556 63.5251 260.615 62.2054C260.629 61.9002 260.606 61.5943 260.546 61.2948C260.028 61.2903 259.529 61.4869 259.154 61.8431C258.778 62.1994 258.556 62.6874 258.533 63.2045Z" fill="#F2F2F2"/>
<path d="M267.723 69.2498C267.568 72.7587 265.37 75.5114 262.813 75.3982C260.257 75.285 258.31 72.3487 258.466 68.8398C259.863 69.6454 261.433 70.1032 263.045 70.1745C264.656 70.2459 266.261 69.9287 267.723 69.2498Z" fill="white"/>
<path d="M334.993 224.931C342.628 224.931 348.817 218.742 348.817 211.107C348.817 203.472 342.628 197.283 334.993 197.283C327.358 197.283 321.168 203.472 321.168 211.107C321.168 218.742 327.358 224.931 334.993 224.931Z" fill="#F2F2F2"/>
<path d="M336.744 205.344C336.73 205.653 336.754 205.962 336.814 206.266C336.844 206.596 336.964 206.912 337.162 207.179C337.36 207.445 337.627 207.652 337.935 207.776C337.989 207.789 338.044 207.797 338.1 207.799C338.708 207.826 339.256 207.241 339.514 206.385C339.601 206.088 339.652 205.782 339.665 205.473C339.68 205.168 339.657 204.861 339.596 204.561C339.417 203.682 338.921 203.045 338.311 203.018C337.504 202.982 336.803 204.024 336.744 205.344Z" fill="white"/>
<path d="M337.524 206.47C337.502 206.94 337.648 207.403 337.935 207.776C337.989 207.789 338.044 207.797 338.1 207.799C338.708 207.826 339.256 207.241 339.514 206.385C339.601 206.088 339.652 205.782 339.665 205.473C339.68 205.168 339.657 204.861 339.596 204.561C339.068 204.54 338.554 204.73 338.166 205.088C337.778 205.445 337.547 205.942 337.524 206.47Z" fill="#F2F2F2"/>
<path d="M330.694 205.076C330.638 206.343 331.195 207.406 331.954 207.522C331.986 207.527 332.018 207.53 332.05 207.532C332.856 207.567 333.557 206.525 333.615 205.205C333.63 204.9 333.607 204.594 333.546 204.295C333.367 203.414 332.871 202.777 332.262 202.75C331.454 202.714 330.753 203.756 330.694 205.076Z" fill="white"/>
<path d="M331.533 206.205C331.511 206.68 331.66 207.147 331.953 207.522C331.985 207.527 332.017 207.53 332.049 207.531C332.855 207.567 333.556 206.525 333.615 205.205C333.629 204.9 333.606 204.594 333.546 204.295C333.028 204.29 332.529 204.487 332.154 204.843C331.778 205.199 331.556 205.687 331.533 206.205Z" fill="#F2F2F2"/>
<path d="M340.723 212.25C340.568 215.759 338.37 218.511 335.813 218.398C333.257 218.285 331.31 215.349 331.466 211.84C332.863 212.645 334.433 213.103 336.045 213.175C337.656 213.246 339.261 212.929 340.723 212.25Z" fill="white"/>
<path d="M600.993 62.9314C608.628 62.9314 614.817 56.7421 614.817 49.1072C614.817 41.4722 608.628 35.2829 600.993 35.2829C593.358 35.2829 587.168 41.4722 587.168 49.1072C587.168 56.7421 593.358 62.9314 600.993 62.9314Z" fill="#F2F2F2"/>
<path d="M602.744 43.344C602.73 43.6529 602.754 43.9624 602.814 44.2656C602.844 44.5962 602.964 44.9122 603.162 45.1788C603.36 45.4453 603.627 45.6519 603.935 45.7757C603.989 45.789 604.044 45.797 604.1 45.7994C604.708 45.8263 605.256 45.2413 605.514 44.3851C605.601 44.0885 605.652 43.7823 605.665 43.4733C605.68 43.1675 605.657 42.861 605.596 42.5609C605.417 41.6817 604.921 41.045 604.311 41.018C603.504 40.9822 602.803 42.0243 602.744 43.344Z" fill="white"/>
<path d="M603.524 44.4698C603.502 44.9401 603.648 45.4028 603.935 45.7757C603.989 45.789 604.044 45.797 604.1 45.7994C604.708 45.8263 605.256 45.2413 605.514 44.3851C605.601 44.0885 605.652 43.7823 605.665 43.4733C605.68 43.1675 605.657 42.861 605.596 42.5609C605.068 42.5405 604.554 42.7299 604.166 43.0876C603.778 43.4453 603.547 43.9423 603.524 44.4698Z" fill="#F2F2F2"/>
<path d="M596.694 43.076C596.638 44.343 597.195 45.4063 597.954 45.5218C597.986 45.5268 598.018 45.5301 598.05 45.5314C598.856 45.5671 599.557 44.5251 599.615 43.2055C599.63 42.9002 599.607 42.5944 599.546 42.2948C599.367 41.4138 598.871 40.7771 598.262 40.7501C597.454 40.7142 596.753 41.7563 596.694 43.076Z" fill="white"/>
<path d="M597.533 44.2045C597.511 44.6797 597.66 45.147 597.953 45.5217C597.985 45.5268 598.017 45.5301 598.049 45.5314C598.855 45.5671 599.556 44.5251 599.615 43.2054C599.629 42.9002 599.606 42.5943 599.546 42.2948C599.028 42.2903 598.529 42.4869 598.154 42.8431C597.778 43.1994 597.556 43.6874 597.533 44.2045Z" fill="#F2F2F2"/>
<path d="M606.723 50.2498C606.568 53.7587 604.37 56.5114 601.813 56.3982C599.257 56.285 597.31 53.3487 597.466 49.8398C598.863 50.6454 600.433 51.1032 602.045 51.1745C603.656 51.2459 605.261 50.9287 606.723 50.2498Z" fill="white"/>
<path d="M18.9927 429.931C26.6277 429.931 32.817 423.742 32.817 416.107C32.817 408.472 26.6277 402.283 18.9927 402.283C11.3578 402.283 5.16846 408.472 5.16846 416.107C5.16846 423.742 11.3578 429.931 18.9927 429.931Z" fill="#F2F2F2"/>
<path d="M20.7442 410.344C20.73 410.653 20.7536 410.962 20.8144 411.266C20.8437 411.596 20.9639 411.912 21.1617 412.179C21.3595 412.445 21.6272 412.652 21.9352 412.776C21.9891 412.789 22.0442 412.797 22.0996 412.799C22.7077 412.826 23.2556 412.241 23.5136 411.385C23.601 411.088 23.6518 410.782 23.665 410.473C23.6797 410.167 23.6567 409.861 23.5962 409.561C23.4169 408.682 22.9213 408.045 22.3114 408.018C21.5036 407.982 20.8027 409.024 20.7442 410.344Z" fill="white"/>
<path d="M21.5241 411.47C21.5023 411.94 21.6481 412.403 21.9355 412.776C21.9894 412.789 22.0445 412.797 22.1 412.799C22.7081 412.826 23.256 412.241 23.514 411.385C23.6013 411.089 23.6521 410.782 23.6653 410.473C23.6801 410.168 23.657 409.861 23.5966 409.561C23.069 409.541 22.5547 409.73 22.1663 410.088C21.778 410.445 21.5471 410.942 21.5241 411.47Z" fill="#F2F2F2"/>
<path d="M14.6943 410.076C14.6382 411.343 15.195 412.406 15.9538 412.522C15.9855 412.527 16.0176 412.53 16.0498 412.531C16.8558 412.567 17.5567 411.525 17.6151 410.205C17.6298 409.9 17.6067 409.594 17.5463 409.295C17.3671 408.414 16.8715 407.777 16.2615 407.75C15.4537 407.714 14.7528 408.756 14.6943 410.076Z" fill="white"/>
<path d="M15.5334 411.205C15.5114 411.68 15.6604 412.147 15.9534 412.522C15.9852 412.527 16.0172 412.53 16.0494 412.531C16.8554 412.567 17.5563 411.525 17.6147 410.205C17.6295 409.9 17.6064 409.594 17.546 409.295C17.0284 409.29 16.5294 409.487 16.1539 409.843C15.7785 410.199 15.556 410.687 15.5334 411.205Z" fill="#F2F2F2"/>
<path d="M24.7235 417.25C24.5681 420.759 22.3697 423.511 19.8133 423.398C17.2568 423.285 15.3103 420.349 15.4657 416.84C16.8629 417.645 18.4334 418.103 20.0446 418.175C21.6558 418.246 23.2606 417.929 24.7235 417.25Z" fill="white"/>
<path d="M21.9927 210.931C29.6277 210.931 35.817 204.742 35.817 197.107C35.817 189.472 29.6277 183.283 21.9927 183.283C14.3578 183.283 8.16846 189.472 8.16846 197.107C8.16846 204.742 14.3578 210.931 21.9927 210.931Z" fill="#F2F2F2"/>
<path d="M23.7442 191.344C23.73 191.653 23.7536 191.962 23.8144 192.266C23.8437 192.596 23.9639 192.912 24.1617 193.179C24.3595 193.445 24.6272 193.652 24.9352 193.776C24.9891 193.789 25.0442 193.797 25.0996 193.799C25.7077 193.826 26.2556 193.241 26.5136 192.385C26.601 192.088 26.6518 191.782 26.665 191.473C26.6797 191.168 26.6567 190.861 26.5962 190.561C26.4169 189.682 25.9213 189.045 25.3114 189.018C24.5036 188.982 23.8027 190.024 23.7442 191.344Z" fill="white"/>
<path d="M24.5241 192.47C24.5023 192.94 24.6481 193.403 24.9355 193.776C24.9894 193.789 25.0445 193.797 25.1 193.799C25.7081 193.826 26.256 193.241 26.514 192.385C26.6013 192.088 26.6521 191.782 26.6653 191.473C26.6801 191.168 26.657 190.861 26.5966 190.561C26.069 190.54 25.5547 190.73 25.1663 191.088C24.778 191.445 24.5471 191.942 24.5241 192.47Z" fill="#F2F2F2"/>
<path d="M17.6943 191.076C17.6382 192.343 18.195 193.406 18.9538 193.522C18.9855 193.527 19.0176 193.53 19.0498 193.532C19.8558 193.567 20.5567 192.525 20.6151 191.205C20.6298 190.9 20.6067 190.594 20.5463 190.295C20.3671 189.414 19.8715 188.777 19.2615 188.75C18.4537 188.714 17.7528 189.756 17.6943 191.076Z" fill="white"/>
<path d="M18.5334 192.205C18.5114 192.68 18.6604 193.147 18.9534 193.522C18.9852 193.527 19.0172 193.53 19.0494 193.531C19.8554 193.567 20.5563 192.525 20.6147 191.205C20.6295 190.9 20.6064 190.594 20.546 190.295C20.0284 190.29 19.5294 190.487 19.1539 190.843C18.7785 191.199 18.556 191.687 18.5334 192.205Z" fill="#F2F2F2"/>
<path d="M27.7235 198.25C27.5681 201.759 25.3697 204.511 22.8133 204.398C20.2568 204.285 18.3103 201.349 18.4657 197.84C19.8629 198.645 21.4334 199.103 23.0446 199.175C24.6558 199.246 26.2606 198.929 27.7235 198.25Z" fill="white"/>
</g>
<defs>
<clipPath id="clip0_16_644">
<rect width="689.67" height="573.446" fill="white"/>
</clipPath>
</defs>
</svg>
